<svg width="400" height="120" viewBox="0 0 400 120" fill="none" xmlns="http://www.w3.org/2000/svg">
  <style>
    @import url('https://fonts.googleapis.com/css2?family=Outfit:wght@700&amp;display=swap');
    .text { font-family: 'Outfit', 'Segoe UI', sans-serif; font-weight: 700; }
  </style>

  <!-- PASSPORT ICON GROUP -->
  <g transform="translate(10, 10)">
    <!-- Back Cover -->
    <path d="M15 10 H85 A5 5 0 0 1 90 15 V95 A5 5 0 0 1 85 100 H15 A5 5 0 0 1 10 95 V15 A5 5 0 0 1 15 10 Z" fill="#80CBC4"/>
    <path d="M12 12 H82 A5 5 0 0 1 87 17 V97 A5 5 0 0 1 82 102 H12 A5 5 0 0 1 7 97 V17 A5 5 0 0 1 12 12 Z" fill="#B2DFDB"/>
    
    <!-- Main Cover -->
    <rect x="5" y="5" width="80" height="100" rx="8" fill="#004D40" />
    <!-- Spine -->
    <path d="M5 5 H15 V105 H5 A8 8 0 0 1 5 105 V5 Z" fill="#000000" fill-opacity="0.2"/>
    
    <!-- Globe -->
    <circle cx="45" cy="55" r="22" fill="#00695C" />
    <path d="M45 33 C45 33 55 40 55 55 C55 70 45 77 45 77" stroke="#FF6E40" stroke-width="2" fill="none"/>
    <path d="M45 33 C45 33 35 40 35 55 C35 70 45 77 45 77" stroke="#FF6E40" stroke-width="2" fill="none"/>
    <path d="M24 55 H66" stroke="#FF6E40" stroke-width="2"/>
  </g>

  <!-- PAPER PLANE -->
  <path d="M75 75 L110 55 L85 45 L75 75 Z" fill="#FF6E40" stroke="#FFFFFF" stroke-width="2"/>
  <path d="M85 45 L92 63 L110 55" fill="#F4511E"/>
  
  <!-- Motion Trail -->
  <path d="M35 85 Q 55 105 100 80" stroke="#FF6E40" stroke-width="3" stroke-dasharray="4 4" fill="none" stroke-linecap="round"/>

  <!-- TEXT -->
  <text x="130" y="55" class="text" font-size="32" fill="#006064">NOTA</text>
  <text x="130" y="85" class="text" font-size="32" fill="#FF6E40">MERICAN</text>
</svg>
